<mxfile host="app.diagrams.net" modified="2021-10-08T00:31:05.771Z" agent="5.0 (Windows)" etag="yNYomn6BpKoQ6cJA4aSn" version="15.4.3" type="github">
  <diagram id="sAiz3fwd6c5k1yTrx6B4" name="Page-1">
    <mxGraphModel dx="1021" dy="562" grid="1" gridSize="10" guides="1" tooltips="1" connect="1" arrows="1" fold="1" page="1" pageScale="1" pageWidth="850" pageHeight="1100" math="0" shadow="0">
      <root>
        <mxCell id="0" />
        <mxCell id="1" parent="0" />
        <mxCell id="E4Xg9mnB9qlfMcUTHcWA-8" style="edgeStyle=orthogonalEdgeStyle;rounded=0;orthogonalLoop=1;jettySize=auto;html=1;entryX=0.5;entryY=0;entryDx=0;entryDy=0;fontSize=18;" parent="1" source="E4Xg9mnB9qlfMcUTHcWA-1" target="E4Xg9mnB9qlfMcUTHcWA-3" edge="1">
          <mxGeometry relative="1" as="geometry" />
        </mxCell>
        <mxCell id="E4Xg9mnB9qlfMcUTHcWA-9" style="edgeStyle=orthogonalEdgeStyle;rounded=0;orthogonalLoop=1;jettySize=auto;html=1;entryX=0.5;entryY=0;entryDx=0;entryDy=0;fontSize=18;" parent="1" source="E4Xg9mnB9qlfMcUTHcWA-1" target="E4Xg9mnB9qlfMcUTHcWA-2" edge="1">
          <mxGeometry relative="1" as="geometry" />
        </mxCell>
        <mxCell id="E4Xg9mnB9qlfMcUTHcWA-1" value="XAI" style="rounded=0;whiteSpace=wrap;html=1;fontSize=18;" parent="1" vertex="1">
          <mxGeometry x="420" y="80" width="120" height="60" as="geometry" />
        </mxCell>
        <mxCell id="E4Xg9mnB9qlfMcUTHcWA-10" style="edgeStyle=orthogonalEdgeStyle;rounded=0;orthogonalLoop=1;jettySize=auto;html=1;exitX=0;exitY=0.5;exitDx=0;exitDy=0;entryX=0.5;entryY=0;entryDx=0;entryDy=0;fontSize=18;" parent="1" source="E4Xg9mnB9qlfMcUTHcWA-2" target="E4Xg9mnB9qlfMcUTHcWA-4" edge="1">
          <mxGeometry relative="1" as="geometry" />
        </mxCell>
        <mxCell id="E4Xg9mnB9qlfMcUTHcWA-11" style="edgeStyle=orthogonalEdgeStyle;rounded=0;orthogonalLoop=1;jettySize=auto;html=1;exitX=1;exitY=0.5;exitDx=0;exitDy=0;entryX=0.5;entryY=0;entryDx=0;entryDy=0;fontSize=18;" parent="1" source="E4Xg9mnB9qlfMcUTHcWA-2" target="E4Xg9mnB9qlfMcUTHcWA-5" edge="1">
          <mxGeometry relative="1" as="geometry" />
        </mxCell>
        <mxCell id="E4Xg9mnB9qlfMcUTHcWA-2" value="By the interpretation time" style="rhombus;whiteSpace=wrap;html=1;fontSize=18;" parent="1" vertex="1">
          <mxGeometry x="145" y="150" width="130" height="120" as="geometry" />
        </mxCell>
        <mxCell id="E4Xg9mnB9qlfMcUTHcWA-12" style="edgeStyle=orthogonalEdgeStyle;rounded=0;orthogonalLoop=1;jettySize=auto;html=1;exitX=0;exitY=0.5;exitDx=0;exitDy=0;entryX=0.5;entryY=0;entryDx=0;entryDy=0;fontSize=18;" parent="1" source="E4Xg9mnB9qlfMcUTHcWA-3" target="E4Xg9mnB9qlfMcUTHcWA-7" edge="1">
          <mxGeometry relative="1" as="geometry" />
        </mxCell>
        <mxCell id="E4Xg9mnB9qlfMcUTHcWA-13" style="edgeStyle=orthogonalEdgeStyle;rounded=0;orthogonalLoop=1;jettySize=auto;html=1;exitX=1;exitY=0.5;exitDx=0;exitDy=0;fontSize=18;" parent="1" source="E4Xg9mnB9qlfMcUTHcWA-3" target="E4Xg9mnB9qlfMcUTHcWA-6" edge="1">
          <mxGeometry relative="1" as="geometry" />
        </mxCell>
        <mxCell id="E4Xg9mnB9qlfMcUTHcWA-3" value="By the scope" style="rhombus;whiteSpace=wrap;html=1;fontSize=18;" parent="1" vertex="1">
          <mxGeometry x="650" y="150" width="130" height="120" as="geometry" />
        </mxCell>
        <mxCell id="E4Xg9mnB9qlfMcUTHcWA-4" value="Post - hoc" style="rounded=0;whiteSpace=wrap;html=1;fontSize=18;" parent="1" vertex="1">
          <mxGeometry x="25" y="300" width="120" height="60" as="geometry" />
        </mxCell>
        <mxCell id="E4Xg9mnB9qlfMcUTHcWA-5" value="Intrinsic" style="rounded=0;whiteSpace=wrap;html=1;fontSize=18;" parent="1" vertex="1">
          <mxGeometry x="260" y="300" width="120" height="60" as="geometry" />
        </mxCell>
        <mxCell id="E4Xg9mnB9qlfMcUTHcWA-6" value="Local" style="rounded=0;whiteSpace=wrap;html=1;fontSize=18;" parent="1" vertex="1">
          <mxGeometry x="780" y="300" width="120" height="60" as="geometry" />
        </mxCell>
        <mxCell id="E4Xg9mnB9qlfMcUTHcWA-7" value="Global" style="rounded=0;whiteSpace=wrap;html=1;fontSize=18;" parent="1" vertex="1">
          <mxGeometry x="510" y="300" width="120" height="60" as="geometry" />
        </mxCell>
      </root>
    </mxGraphModel>
  </diagram>
</mxfile>
